<svg height="512pt" viewBox="0 0 512 512" width="512pt" xmlns="http://www.w3.org/2000/svg"><path d="m512 256c0 141.386719-114.613281 256-256 256s-256-114.613281-256-256 114.613281-256 256-256 256 114.613281 256 256zm0 0" fill="#fd095d"/><path d="m512 256c0-20.007812-2.300781-39.480469-6.640625-58.167969l-100.863281-100.859375-48.351563 14.882813v88.558593l-104.496093-14.351562-82.367188-82.367188-50.972656 5.78125-13.839844 51.914063 41.1875 41.191406-6.992188 2.75 27.242188 27.242188-4.050781 154.699219 46.78125 46.40625-37.304688 4.320312 73.753907 73.753906c3.621093.152344 7.257812.246094 10.914062.246094 10.011719 0 19.882812-.59375 29.59375-1.710938l.136719-.136718.105469.109375c127.324218-14.785157 226.164062-122.972657 226.164062-254.261719zm0 0" fill="#bc1742"/><path d="m243 190.332031h26v203.609375h-26zm0 0" fill="#ffe000"/><path d="m243 190.332031h12.808594v203.609375h-12.808594zm0 0" fill="#ffe000"/><path d="m255.808594 190.332031h13.191406v203.609375h-13.191406zm0 0" fill="#ffc200"/><path d="m195.667969 190.332031h26v203.171875h-26zm0 0" fill="#ffe000"/><path d="m290.332031 190.332031h26v203.171875h-26zm0 0" fill="#ffc200"/><path d="m299.023438 408.941406h-86.046876c-19.445312 0-37.601562-7.695312-51.121093-21.667968-13.523438-13.972657-20.621094-32.371094-19.984375-51.804688l6.730468-205.113281c-.105468-7.351563-6.117187-13.296875-13.488281-13.296875-7.441406 0-13.5 6.054687-13.5 13.496094 0 7.441406 6.058594 13.5 13.5 13.5v30c-23.984375 0-43.5-19.515626-43.5-43.5 0-23.984376 19.515625-43.496094 43.5-43.496094 23.980469 0 43.492188 19.511718 43.492188 43.496094l-.007813.492187-6.742187 205.402344c-.367188 11.242187 3.738281 21.878906 11.554687 29.960937 7.820313 8.082032 18.320313 12.53125 29.566406 12.53125h86.046876c11.242187 0 21.742187-4.449218 29.5625-12.53125 7.820312-8.082031 11.925781-18.722656 11.558593-29.960937l-6.75-205.648438v-.246093c0-23.984376 19.511719-43.496094 43.492188-43.496094 23.984375 0 43.496093 19.511718 43.496093 43.496094 0 23.984374-19.511718 43.496093-43.496093 43.496093v-30c7.441406 0 13.496093-6.054687 13.496093-13.496093 0-7.441407-6.054687-13.496094-13.496093-13.496094-7.371094 0-13.382813 5.945312-13.492188 13.296875l6.730469 205.113281c.636719 19.433594-6.457031 37.832031-19.980469 51.804688-13.523437 13.972656-31.675781 21.667968-51.121093 21.667968zm0 0" fill="#ffe000"/><path d="m376.886719 87.058594c-23.980469 0-43.492188 19.515625-43.492188 43.5v.246094l6.75 205.648437c.367188 11.238281-3.738281 21.878906-11.558593 29.957031-7.820313 8.082032-18.320313 12.53125-29.5625 12.53125h-43.214844v30h43.214844c19.445312 0 37.601562-7.695312 51.121093-21.667968 13.523438-13.972657 20.621094-32.371094 19.984375-51.804688l-6.730468-205.113281c.105468-7.347657 6.117187-13.296875 13.488281-13.296875 7.441406 0 13.5 6.054687 13.5 13.5 0 7.441406-6.058594 13.496094-13.5 13.496094v30c23.984375 0 43.5-19.515626 43.5-43.496094 0-23.984375-19.515625-43.5-43.5-43.5zm0 0" fill="#ffc200"/><path d="m138.667969 175.332031h234.667969v30h-234.667969zm0 0" fill="#ffe000"/><path d="m255.808594 175.332031h117.527344v30h-117.527344zm0 0" fill="#ffc200"/><path d="m171.332031 408h169.332031v30h-169.332031zm0 0" fill="#ffe000"/><path d="m255.808594 408h84.859375v30h-84.859375zm0 0" fill="#ffc200"/></svg>